<?xml version="1.0" encoding="UTF-8"?>
<svg width="167px" height="167px" viewBox="0 0 167 167" version="1.1" xmlns="http://www.w3.org/2000/svg" xmlns:xlink="http://www.w3.org/1999/xlink">
    <title>Group 3</title>
    <g id="Page-1" stroke="none" stroke-width="1" fill="none" fill-rule="evenodd">
        <g id="MacBook-Air-13&quot;-M2" transform="translate(-455.000000, -58.000000)">
            <g id="Group-3" transform="translate(455.000000, 58.000000)">
                <circle id="Oval" fill="#FFC510" cx="83.5" cy="83.5" r="83.5"></circle>
                <g id="person" transform="translate(34.000000, 25.000000)" fill="#FFFFFF" fill-rule="nonzero">
                    <path d="M96.4295069,93.0421105 C92.0350704,85.2502956 84.8377589,76.4248205 73.1204224,71.4077253 C66.4189649,76.0842036 58.2777664,78.8376203 49.5011971,78.8376203 C40.7197527,78.8376203 32.5785543,76.0844352 25.8768646,71.4077253 C14.1597602,76.4248205 6.96221655,85.2505271 2.57033366,93.0421105 C-3.25850441,103.376859 1.31143092,118 11.3921706,118 C21.4731425,118 49.5014292,118 49.5014292,118 C49.5014292,118 77.5269302,118 87.6081342,118 C97.6886418,118 102.258577,103.376859 96.4295069,93.0421105 Z" id="Path"></path>
                    <path d="M49.5024348,69.3819742 C66.6954686,69.3819742 80.628866,55.5102412 80.628866,38.4015857 L80.628866,30.9801577 C80.628866,13.8717331 66.6954686,0 49.5024348,0 C32.3068503,0 18.371134,13.8717331 18.371134,30.9803885 L18.371134,38.4018165 C18.371134,55.5102412 32.3070822,69.3819742 49.5024348,69.3819742 Z" id="Path"></path>
                </g>
            </g>
        </g>
    </g>
</svg>